<?xml version="1.0" encoding="UTF-8"?>
<svg version="1.1" xmlns="http://www.w3.org/2000/svg" width="500" height="500">
<path d="M0 0 C4.97306516 0.49730652 8.63799813 1.55302334 13 4 C12.26734562 10.93916331 10.89372905 17.67978998 9.4375 24.5 C9.20353516 25.60859375 8.96957031 26.7171875 8.72851562 27.859375 C8.1552633 30.57354927 7.57902176 33.28705176 7 36 C11.84518903 33.97178133 15.46063834 31.65325708 18 27 C19.40112755 22.81416801 20.3368912 18.56517546 21.25 14.25 C21.75355406 11.98400675 22.25868142 9.71836236 22.765625 7.453125 C23.08708496 5.95507324 23.08708496 5.95507324 23.41503906 4.42675781 C24 2 24 2 25 0 C29.97093824 0.41153737 34.44508386 0.79600832 39 3 C38.36738961 12.1303619 36.56187623 20.97332457 34.72631836 29.92260742 C34.18849745 32.5576131 33.66720476 35.1955533 33.14648438 37.83398438 C32.80048553 39.53666315 32.45351279 41.23914436 32.10546875 42.94140625 C31.95426071 43.71666153 31.80305267 44.49191681 31.64726257 45.29066467 C29.66863014 54.73755798 26.52390491 61.81974764 18.6875 67.75 C12.01316051 70.85434395 6.96733716 70.06484163 0.19921875 67.88671875 C-2 67 -2 67 -5 65 C-4.85892253 63.54119891 -4.71197585 62.08296449 -4.5625 60.625 C-4.48128906 59.81289063 -4.40007812 59.00078125 -4.31640625 58.1640625 C-4 56 -4 56 -3 54 C-2.10796875 54.11859375 -1.2159375 54.2371875 -0.296875 54.359375 C1.45882813 54.55273438 1.45882813 54.55273438 3.25 54.75 C4.41015625 54.88921875 5.5703125 55.0284375 6.765625 55.171875 C10.06015694 55.30060226 10.06015694 55.30060226 12.34375 53.21875 C14.29912726 50.59928235 15.14407808 48.13838036 16 45 C15.113125 45.804375 14.22625 46.60875 13.3125 47.4375 C10.55021864 49.69637495 8.6963169 51.09015407 5 51 C-0.80911844 48.35022668 -4.1748668 45.37649641 -7.25 39.6875 C-9.16336725 32.83126736 -7.64180567 25.88130911 -6.25 19.0625 C-6.01410156 17.79889648 -6.01410156 17.79889648 -5.7734375 16.50976562 C-4.59002911 10.59727523 -2.66340271 5.40441991 0 0 Z " fill="#FDFDFD" transform="translate(328,235)"/>
<path d="M0 0 C1.69993564 1.29064881 3.37716887 2.61364699 5 4 C4.89042969 4.62261719 4.78085938 5.24523437 4.66796875 5.88671875 C3.47753102 12.82609966 2.43249242 19.78016663 1.4375 26.75 C1.24740356 28.07970825 1.24740356 28.07970825 1.0534668 29.4362793 C0.48055384 33.47994811 -0.06393692 37.52037941 -0.52734375 41.578125 C-1 45 -1 45 -2 46 C-3.64869317 45.96219927 -5.29594032 45.84529698 -6.9375 45.6875 C-7.83339844 45.60886719 -8.72929687 45.53023438 -9.65234375 45.44921875 C-12 45 -12 45 -14 43 C-14.125 40.375 -14.125 40.375 -14 38 C-14.66 38 -15.32 38 -16 38 C-16.226875 38.5775 -16.45375 39.155 -16.6875 39.75 C-18.42027339 42.72046866 -20.07533544 44.18020872 -23 46 C-27.28857896 46.71476316 -30.06412906 46.28885317 -33.6875 44 C-38.42279284 40.16057337 -40.60224956 36.09589261 -41.37890625 30.05078125 C-41.75628546 19.95893079 -39.71669301 8.8681261 -33 1 C-22.78574963 -9.09464556 -12.12781506 -6.36410097 0 0 Z M-20.6875 9.375 C-25.48509923 16.07616279 -26.3834965 22.94657349 -26 31 C-22.89711555 32.39971326 -22.89711555 32.39971326 -19.5625 30.5625 C-13.74822896 26.26338858 -13.16260323 17.68677388 -12 11 C-12 10.01 -12 9.02 -12 8 C-16.1408761 6.65180778 -17.33276333 6.41034899 -20.6875 9.375 Z " fill="#FDFDFD" transform="translate(217,240)"/>
<path d="M0 0 C2.50390625 1.5703125 2.50390625 1.5703125 4.50390625 4.5703125 C5.2273243 9.38188372 5.15014852 14.07317113 2.87890625 18.4453125 C-0.46967159 22.85133597 -4.03280386 25.55822822 -9.49609375 26.5703125 C-11.41170629 26.63719841 -13.32944967 26.65562969 -15.24609375 26.6328125 C-16.2309375 26.62378906 -17.21578125 26.61476563 -18.23046875 26.60546875 C-18.978125 26.59386719 -19.72578125 26.58226562 -20.49609375 26.5703125 C-19.83609375 28.2203125 -19.17609375 29.8703125 -18.49609375 31.5703125 C-13.05717725 31.78786916 -8.62528561 31.67459634 -3.49609375 29.5703125 C-1.88656923 32.15452917 -0.48505463 34.68405166 0.50390625 37.5703125 C-0.60870435 41.33607146 -2.39870053 42.49523856 -5.49609375 44.8828125 C-10.33935003 47.37071678 -15.19385193 47.41286052 -20.49609375 46.5703125 C-26.25481318 44.60234676 -31.44916161 42.02939926 -34.49609375 36.5703125 C-37.84920905 27.30932737 -36.36220463 18.24529582 -32.79296875 9.21875 C-30.06318707 3.64407537 -26.61703999 -0.86203158 -21.62109375 -4.5546875 C-13.4960117 -6.82971047 -7.25418531 -3.68731258 0 0 Z M-13.49609375 6.5703125 C-14.96223861 7.96054362 -14.96223861 7.96054362 -16.18359375 9.8203125 C-16.62058594 10.42359375 -17.05757813 11.026875 -17.5078125 11.6484375 C-18.8009652 13.80300363 -18.8009652 13.80300363 -18.49609375 17.5703125 C-15.293208 16.71620963 -13.0027057 16.04423981 -10.55859375 13.7578125 C-9.19948822 10.95965405 -9.60393266 9.49011243 -10.49609375 6.5703125 C-11.48609375 6.5703125 -12.47609375 6.5703125 -13.49609375 6.5703125 Z " fill="#FDFDFD" transform="translate(292.49609375,239.4296875)"/>
<path d="M0 0 C5.98993047 -0.3152595 9.63560356 0.31780178 15 3 C14.27916892 10.77115146 12.38845606 18.23909016 10.5625 25.8125 C8.47184741 34.51085909 6.50670671 43.17933006 5 52 C10.94 51.67 16.88 51.34 23 51 C25.50816459 56.01632918 26.46696161 58.66961613 27 64 C21.39573143 66.27200077 15.96808773 66.65155264 10 67 C8.21142578 67.16822266 8.21142578 67.16822266 6.38671875 67.33984375 C-2.85677076 67.89621007 -2.85677076 67.89621007 -6.1875 65.28515625 C-7.72018571 63.24771587 -8.91360277 61.30223753 -10 59 C-10.33 58.34 -10.66 57.68 -11 57 C-11.40240669 39.7539992 -7.78730743 15.57461487 0 0 Z " fill="#FDFDFD" transform="translate(146,219)"/>
<path d="M0 0 C5.32399333 0.04399994 9.64430469 0.7683551 14 4 C13.68991116 5.60463449 13.37683713 7.20869231 13.0625 8.8125 C12.80146484 10.15248047 12.80146484 10.15248047 12.53515625 11.51953125 C12 14 12 14 11 17 C11.94875 16.979375 12.8975 16.95875 13.875 16.9375 C17 17 17 17 19 18 C19.02686553 19.97909398 19.04633375 21.95828971 19.0625 23.9375 C19.07410156 25.03964844 19.08570313 26.14179688 19.09765625 27.27734375 C19 30 19 30 18 31 C16.31816052 31.23287008 14.6287584 31.41264166 12.9375 31.5625 C11.55884766 31.68818359 11.55884766 31.68818359 10.15234375 31.81640625 C9.44207031 31.87699219 8.73179687 31.93757813 8 32 C5.122732 41.88989339 5.122732 41.88989339 5 52 C6.62553283 53.70680947 8.29115995 55.37660195 10 57 C10.625 59.375 10.625 59.375 10 62 C8.50126148 64.47550259 6.81608375 66.74935335 5 69 C-0.44688717 68.77767807 -3.51682717 67.57007946 -7.484375 63.78125 C-11.76133955 58.75471434 -12.21588039 54.10191908 -11.8125 47.625 C-11.22245837 42.00649249 -10.27908432 36.5013044 -9 31 C-10.32 30.67 -11.64 30.34 -13 30 C-13.02698189 28.37509046 -13.04638757 26.75005367 -13.0625 25.125 C-13.07410156 24.22007812 -13.08570313 23.31515625 -13.09765625 22.3828125 C-13 20 -13 20 -12 18 C-8.9375 17.375 -8.9375 17.375 -6 17 C-5.47599609 15.28490234 -5.47599609 15.28490234 -4.94140625 13.53515625 C-4.48193537 12.04422012 -4.02229099 10.55333745 -3.5625 9.0625 C-3.33240234 8.30775391 -3.10230469 7.55300781 -2.86523438 6.77539062 C-1.11328125 1.11328125 -1.11328125 1.11328125 0 0 Z " fill="#FEFEFE" transform="translate(238,217)"/>
<path d="M0 0 C4.97093824 0.41153737 9.44508386 0.79600832 14 3 C13.29774876 10.42907886 11.51573301 17.51068084 9.75 24.75 C6.8955565 36.59865782 4.52571245 48.45498995 2.51074219 60.47753906 C2.32415039 61.58452148 2.13755859 62.69150391 1.9453125 63.83203125 C1.78562988 64.80889893 1.62594727 65.7857666 1.46142578 66.79223633 C1 69 1 69 0 70 C-4.83142465 69.59738128 -8.51174641 68.84660371 -13 67 C-13.21441161 59.4369512 -12.68182913 52.32185171 -11.375 44.875 C-11.2004126 43.85672119 -11.0258252 42.83844238 -10.84594727 41.78930664 C-9.45244985 33.948266 -7.77344996 26.18610329 -5.9375 18.4375 C-5.69241699 17.39770996 -5.44733398 16.35791992 -5.19482422 15.28662109 C-3.88092817 9.92645252 -2.3595386 4.99213953 0 0 Z " fill="#FEFEFE" transform="translate(311,216)"/>
</svg>
